<?xml version="1.0" encoding="utf-8"?>
<!-- Generator: Adobe Illustrator 16.0.0, SVG Export Plug-In . SVG Version: 6.00 Build 0)  -->
<!DOCTYPE svg PUBLIC "-//W3C//DTD SVG 1.1//EN" "http://www.w3.org/Graphics/SVG/1.1/DTD/svg11.dtd">
<svg version="1.1" xmlns="http://www.w3.org/2000/svg" xmlns:xlink="http://www.w3.org/1999/xlink" x="0px" y="0px" width="477px"
	 height="458.2px" viewBox="-20.5 -21.1 477 458.2" enable-background="new -20.5 -21.1 477 458.2" xml:space="preserve">
<g id="Layer_2">
</g>
<g id="Layer_3">
	<g id="Layer_1">
		<g>
			<g>
				<line fill="none" stroke="#111111" stroke-width="7" stroke-miterlimit="10" x1="624.5" y1="-471.1" x2="701" y2="-236"/>
				
					<linearGradient id="SVGID_1_" gradientUnits="userSpaceOnUse" x1="678.1719" y1="624.4199" x2="759.3281" y2="624.4199" gradientTransform="matrix(1 0 0 -1 -56 270.9004)">
					<stop  offset="0" style="stop-color:#FFB92E"/>
					<stop  offset="1" style="stop-color:#CC2541"/>
				</linearGradient>
				
					<line fill="none" stroke="url(#SVGID_1_)" stroke-width="5" stroke-miterlimit="10" x1="624.5" y1="-471.1" x2="701" y2="-236"/>
			</g>
			<g>
				<line fill="none" stroke="#111111" stroke-width="7" stroke-miterlimit="10" x1="1024.5" y1="-471.1" x2="947.3" y2="-236"/>
				
					<linearGradient id="SVGID_2_" gradientUnits="userSpaceOnUse" x1="1000.959" y1="624.4199" x2="1082.9248" y2="624.4199" gradientTransform="matrix(1 0 0 -1 -56 270.9004)">
					<stop  offset="0" style="stop-color:#CC25CC"/>
					<stop  offset="1" style="stop-color:#4125CC"/>
				</linearGradient>
				
					<line fill="none" stroke="url(#SVGID_2_)" stroke-width="5" stroke-miterlimit="10" x1="1024.5" y1="-471.1" x2="947.3" y2="-236"/>
			</g>
			<g>
				<line fill="none" stroke="#111111" stroke-width="7" stroke-miterlimit="10" x1="824.5" y1="-616.4" x2="1024.5" y2="-471.1"/>
				
					<linearGradient id="SVGID_3_" gradientUnits="userSpaceOnUse" x1="1082.0205" y1="814.6191" x2="879.0811" y2="814.6191" gradientTransform="matrix(1 0 0 -1 -56 270.9004)">
					<stop  offset="0" style="stop-color:#4125CC"/>
					<stop  offset="1" style="stop-color:#78CC25"/>
				</linearGradient>
				
					<line fill="none" stroke="url(#SVGID_3_)" stroke-width="5" stroke-miterlimit="10" x1="824.5" y1="-616.4" x2="1024.5" y2="-471.1"/>
			</g>
			<g>
				<line fill="none" stroke="#111111" stroke-width="7" stroke-miterlimit="10" x1="624.5" y1="-471.1" x2="824.5" y2="-616.4"/>
				
					<linearGradient id="SVGID_4_" gradientUnits="userSpaceOnUse" x1="679.0801" y1="814.6201" x2="882.0195" y2="814.6201" gradientTransform="matrix(1 0 0 -1 -56 270.9004)">
					<stop  offset="0" style="stop-color:#FFB92E"/>
					<stop  offset="1" style="stop-color:#78CC25"/>
				</linearGradient>
				
					<line fill="none" stroke="url(#SVGID_4_)" stroke-width="5" stroke-miterlimit="10" x1="624.5" y1="-471.1" x2="824.5" y2="-616.4"/>
			</g>
			<circle fill="#78CC25" stroke="#231F20" stroke-miterlimit="10" cx="824.8" cy="-616.4" r="17.5"/>
			<circle fill="#FFB92E" stroke="#231F20" stroke-miterlimit="10" cx="624.5" cy="-471.1" r="17.5"/>
			<circle fill="#301B97" stroke="#231F20" stroke-miterlimit="10" cx="1024.5" cy="-471.1" r="17.5"/>
			<g>
				<line fill="none" stroke="#111111" stroke-width="7" stroke-miterlimit="10" x1="701" y1="-236" x2="947.3" y2="-236"/>
				<linearGradient id="SVGID_5_" gradientUnits="userSpaceOnUse" x1="700.9502" y1="-235.9692" x2="947.334" y2="-235.9692">
					<stop  offset="0" style="stop-color:#CC2541"/>
					<stop  offset="1" style="stop-color:#CC25CC"/>
				</linearGradient>
				<line fill="none" stroke="url(#SVGID_5_)" stroke-width="5" stroke-miterlimit="10" x1="701" y1="-236" x2="947.3" y2="-236"/>
			</g>
			<circle fill="#CC25CC" stroke="#231F20" stroke-miterlimit="10" cx="947.3" cy="-236" r="17.5"/>
			<circle fill="#CC2541" stroke="#231F20" stroke-miterlimit="10" cx="701" cy="-236" r="17.5"/>
		</g>
		<g>
			<g>
				<line fill="none" stroke="#111111" stroke-width="7" stroke-miterlimit="10" x1="51.4" y1="-236.4" x2="127.7" y2="-471.5"/>
				
					<linearGradient id="SVGID_6_" gradientUnits="userSpaceOnUse" x1="693.6006" y1="-307.7715" x2="774.7559" y2="-307.7715" gradientTransform="matrix(-0.809 -0.5878 -0.5878 0.809 502.6071 326.5351)">
					<stop  offset="0" style="stop-color:#FFB92E"/>
					<stop  offset="1" style="stop-color:#CC2541"/>
				</linearGradient>
				
					<line fill="none" stroke="url(#SVGID_6_)" stroke-width="5" stroke-miterlimit="10" x1="51.4" y1="-236.4" x2="127.7" y2="-471.5"/>
			</g>
			<g>
				<line fill="none" stroke="#111111" stroke-width="7" stroke-miterlimit="10" x1="-272.2" y1="-471.6" x2="-71.6" y2="-616.4"/>
				
					<linearGradient id="SVGID_7_" gradientUnits="userSpaceOnUse" x1="1016.3867" y1="-307.7715" x2="1098.3516" y2="-307.7715" gradientTransform="matrix(-0.809 -0.5878 -0.5878 0.809 502.6071 326.5351)">
					<stop  offset="0" style="stop-color:#CC25CC"/>
					<stop  offset="1" style="stop-color:#4125CC"/>
				</linearGradient>
				
					<line fill="none" stroke="url(#SVGID_7_)" stroke-width="5" stroke-miterlimit="10" x1="-272.2" y1="-471.6" x2="-71.6" y2="-616.4"/>
			</g>
			<g>
				<line fill="none" stroke="#111111" stroke-width="7" stroke-miterlimit="10" x1="-195.9" y1="-236.4" x2="-272.2" y2="-471.6"/>
				
					<linearGradient id="SVGID_8_" gradientUnits="userSpaceOnUse" x1="1097.4473" y1="-117.5703" x2="894.5078" y2="-117.5703" gradientTransform="matrix(-0.809 -0.5878 -0.5878 0.809 502.6071 326.5351)">
					<stop  offset="0" style="stop-color:#4125CC"/>
					<stop  offset="1" style="stop-color:#78CC25"/>
				</linearGradient>
				
					<line fill="none" stroke="url(#SVGID_8_)" stroke-width="5" stroke-miterlimit="10" x1="-195.9" y1="-236.4" x2="-272.2" y2="-471.6"/>
			</g>
			<g>
				<line fill="none" stroke="#111111" stroke-width="7" stroke-miterlimit="10" x1="51.4" y1="-236.4" x2="-195.9" y2="-236.4"/>
				
					<linearGradient id="SVGID_9_" gradientUnits="userSpaceOnUse" x1="694.5068" y1="-117.5703" x2="897.4473" y2="-117.5703" gradientTransform="matrix(-0.809 -0.5878 -0.5878 0.809 502.6071 326.5351)">
					<stop  offset="0" style="stop-color:#FFB92E"/>
					<stop  offset="1" style="stop-color:#78CC25"/>
				</linearGradient>
				
					<line fill="none" stroke="url(#SVGID_9_)" stroke-width="5" stroke-miterlimit="10" x1="51.4" y1="-236.4" x2="-195.9" y2="-236.4"/>
			</g>
			<circle fill="#78CC25" stroke="#231F20" stroke-miterlimit="10" cx="-196" cy="-236.6" r="17.5"/>
			<circle fill="#FFB92E" stroke="#231F20" stroke-miterlimit="10" cx="51.4" cy="-236.4" r="17.5"/>
			<circle fill="#301B97" stroke="#231F20" stroke-miterlimit="10" cx="-272.2" cy="-471.6" r="17.5"/>
			<g>
				<line fill="none" stroke="#111111" stroke-width="7" stroke-miterlimit="10" x1="127.7" y1="-471.5" x2="-71.6" y2="-616.4"/>
				
					<linearGradient id="SVGID_10_" gradientUnits="userSpaceOnUse" x1="716.376" y1="696.2217" x2="962.7598" y2="696.2217" gradientTransform="matrix(-0.809 -0.5878 0.5878 -0.809 298.0692 512.7816)">
					<stop  offset="0" style="stop-color:#CC2541"/>
					<stop  offset="1" style="stop-color:#CC25CC"/>
				</linearGradient>
				
					<line fill="none" stroke="url(#SVGID_10_)" stroke-width="5" stroke-miterlimit="10" x1="127.7" y1="-471.5" x2="-71.6" y2="-616.4"/>
			</g>
			<circle fill="#CC25CC" stroke="#231F20" stroke-miterlimit="10" cx="-71.6" cy="-616.4" r="17.5"/>
			<circle fill="#CC2541" stroke="#231F20" stroke-miterlimit="10" cx="127.7" cy="-471.5" r="17.5"/>
		</g>
		<g>
			<g>
				<line fill="none" stroke="#111111" stroke-width="7" stroke-miterlimit="10" x1="-318.5" y1="-471.1" x2="-518.5" y2="-616.4"/>
				
					<linearGradient id="SVGID_11_" gradientUnits="userSpaceOnUse" x1="364.9053" y1="-955.4922" x2="446.0615" y2="-955.4922" gradientTransform="matrix(-0.809 0.5878 0.5878 0.809 471.1307 -9.0512)">
					<stop  offset="0" style="stop-color:#FFB92E"/>
					<stop  offset="1" style="stop-color:#CC2541"/>
				</linearGradient>
				
					<line fill="none" stroke="url(#SVGID_11_)" stroke-width="5" stroke-miterlimit="10" x1="-318.5" y1="-471.1" x2="-518.5" y2="-616.4"/>
			</g>
			<g>
				<line fill="none" stroke="#111111" stroke-width="7" stroke-miterlimit="10" x1="-642.1" y1="-236" x2="-717.9" y2="-471.5"/>
				
					<linearGradient id="SVGID_12_" gradientUnits="userSpaceOnUse" x1="687.6924" y1="-955.4907" x2="769.6592" y2="-955.4907" gradientTransform="matrix(-0.809 0.5878 0.5878 0.809 471.1307 -9.0512)">
					<stop  offset="0" style="stop-color:#CC25CC"/>
					<stop  offset="1" style="stop-color:#4125CC"/>
				</linearGradient>
				
					<line fill="none" stroke="url(#SVGID_12_)" stroke-width="5" stroke-miterlimit="10" x1="-642.1" y1="-236" x2="-717.9" y2="-471.5"/>
			</g>
			<g>
				<line fill="none" stroke="#111111" stroke-width="7" stroke-miterlimit="10" x1="-394.9" y1="-236" x2="-642.1" y2="-236"/>
				
					<linearGradient id="SVGID_13_" gradientUnits="userSpaceOnUse" x1="768.7539" y1="-765.291" x2="565.8145" y2="-765.291" gradientTransform="matrix(-0.809 0.5878 0.5878 0.809 471.1307 -9.0512)">
					<stop  offset="0" style="stop-color:#4125CC"/>
					<stop  offset="1" style="stop-color:#78CC25"/>
				</linearGradient>
				
					<line fill="none" stroke="url(#SVGID_13_)" stroke-width="5" stroke-miterlimit="10" x1="-394.9" y1="-236" x2="-642.1" y2="-236"/>
			</g>
			<g>
				<line fill="none" stroke="#111111" stroke-width="7" stroke-miterlimit="10" x1="-318.5" y1="-471.1" x2="-394.9" y2="-236"/>
				
					<linearGradient id="SVGID_14_" gradientUnits="userSpaceOnUse" x1="365.8115" y1="-765.291" x2="568.7529" y2="-765.291" gradientTransform="matrix(-0.809 0.5878 0.5878 0.809 471.1307 -9.0512)">
					<stop  offset="0" style="stop-color:#FFB92E"/>
					<stop  offset="1" style="stop-color:#78CC25"/>
				</linearGradient>
				
					<line fill="none" stroke="url(#SVGID_14_)" stroke-width="5" stroke-miterlimit="10" x1="-318.5" y1="-471.1" x2="-394.9" y2="-236"/>
			</g>
			<circle fill="#78CC25" stroke="#231F20" stroke-miterlimit="10" cx="-395.1" cy="-235.9" r="17.5"/>
			<circle fill="#FFB92E" stroke="#231F20" stroke-miterlimit="10" cx="-318.5" cy="-471.1" r="17.5"/>
			<circle fill="#301B97" stroke="#231F20" stroke-miterlimit="10" cx="-642.1" cy="-236" r="17.5"/>
			<g>
				<line fill="none" stroke="#111111" stroke-width="7" stroke-miterlimit="10" x1="-518.5" y1="-616.4" x2="-717.9" y2="-471.5"/>
				
					<linearGradient id="SVGID_15_" gradientUnits="userSpaceOnUse" x1="387.6875" y1="1343.9404" x2="634.0713" y2="1343.9404" gradientTransform="matrix(-0.809 0.5878 -0.5878 -0.809 585.0602 243.0259)">
					<stop  offset="0" style="stop-color:#CC2541"/>
					<stop  offset="1" style="stop-color:#CC25CC"/>
				</linearGradient>
				
					<line fill="none" stroke="url(#SVGID_15_)" stroke-width="5" stroke-miterlimit="10" x1="-518.5" y1="-616.4" x2="-717.9" y2="-471.5"/>
			</g>
			<circle fill="#CC25CC" stroke="#231F20" stroke-miterlimit="10" cx="-717.9" cy="-471.5" r="17.5"/>
			<circle fill="#CC2541" stroke="#231F20" stroke-miterlimit="10" cx="-518.5" cy="-616.4" r="17.5"/>
		</g>
		<g>
			<g>
				
					<line fill="none" stroke="#111111" stroke-width="7" stroke-miterlimit="10" x1="-989.8" y1="-616.4" x2="-1189.7" y2="-471.1"/>
				
					<linearGradient id="SVGID_16_" gradientUnits="userSpaceOnUse" x1="-876.0454" y1="-1051.7808" x2="-794.8882" y2="-1051.7808" gradientTransform="matrix(0.309 0.9511 0.9511 -0.309 168.7336 -74.1516)">
					<stop  offset="0" style="stop-color:#FFB92E"/>
					<stop  offset="1" style="stop-color:#CC2541"/>
				</linearGradient>
				
					<line fill="none" stroke="url(#SVGID_16_)" stroke-width="5" stroke-miterlimit="10" x1="-989.8" y1="-616.4" x2="-1189.7" y2="-471.1"/>
			</g>
			<g>
				
					<line fill="none" stroke="#111111" stroke-width="7" stroke-miterlimit="10" x1="-866.1" y1="-235.9" x2="-1113.6" y2="-236.7"/>
				
					<linearGradient id="SVGID_17_" gradientUnits="userSpaceOnUse" x1="-553.2578" y1="-1051.7798" x2="-471.292" y2="-1051.7798" gradientTransform="matrix(0.309 0.9511 0.9511 -0.309 168.7336 -74.1516)">
					<stop  offset="0" style="stop-color:#CC25CC"/>
					<stop  offset="1" style="stop-color:#4125CC"/>
				</linearGradient>
				
					<line fill="none" stroke="url(#SVGID_17_)" stroke-width="5" stroke-miterlimit="10" x1="-866.1" y1="-235.9" x2="-1113.6" y2="-236.7"/>
			</g>
			<g>
				<line fill="none" stroke="#111111" stroke-width="7" stroke-miterlimit="10" x1="-789.8" y1="-471.1" x2="-866.1" y2="-235.9"/>
				
					<linearGradient id="SVGID_18_" gradientUnits="userSpaceOnUse" x1="-472.1963" y1="-861.5796" x2="-675.1357" y2="-861.5796" gradientTransform="matrix(0.309 0.9511 0.9511 -0.309 168.7336 -74.1516)">
					<stop  offset="0" style="stop-color:#4125CC"/>
					<stop  offset="1" style="stop-color:#78CC25"/>
				</linearGradient>
				
					<line fill="none" stroke="url(#SVGID_18_)" stroke-width="5" stroke-miterlimit="10" x1="-789.8" y1="-471.1" x2="-866.1" y2="-235.9"/>
			</g>
			<g>
				<line fill="none" stroke="#111111" stroke-width="7" stroke-miterlimit="10" x1="-989.8" y1="-616.4" x2="-789.8" y2="-471.1"/>
				
					<linearGradient id="SVGID_19_" gradientUnits="userSpaceOnUse" x1="-875.1372" y1="-861.5801" x2="-672.1978" y2="-861.5801" gradientTransform="matrix(0.309 0.9511 0.9511 -0.309 168.7336 -74.1516)">
					<stop  offset="0" style="stop-color:#FFB92E"/>
					<stop  offset="1" style="stop-color:#78CC25"/>
				</linearGradient>
				
					<line fill="none" stroke="url(#SVGID_19_)" stroke-width="5" stroke-miterlimit="10" x1="-989.8" y1="-616.4" x2="-789.8" y2="-471.1"/>
			</g>
			<circle fill="#78CC25" stroke="#231F20" stroke-miterlimit="10" cx="-789.7" cy="-470.9" r="17.5"/>
			<circle fill="#FFB92E" stroke="#231F20" stroke-miterlimit="10" cx="-989.8" cy="-616.4" r="17.5"/>
			<circle fill="#301B97" stroke="#231F20" stroke-miterlimit="10" cx="-866.1" cy="-235.9" r="17.5"/>
			<g>
				
					<line fill="none" stroke="#111111" stroke-width="7" stroke-miterlimit="10" x1="-1189.7" y1="-471.1" x2="-1113.6" y2="-236.7"/>
				
					<linearGradient id="SVGID_20_" gradientUnits="userSpaceOnUse" x1="-853.2607" y1="1440.2256" x2="-606.8779" y2="1440.2256" gradientTransform="matrix(0.309 0.9511 -0.9511 0.309 443.6732 -104.6076)">
					<stop  offset="0" style="stop-color:#CC2541"/>
					<stop  offset="1" style="stop-color:#CC25CC"/>
				</linearGradient>
				
					<line fill="none" stroke="url(#SVGID_20_)" stroke-width="5" stroke-miterlimit="10" x1="-1189.7" y1="-471.1" x2="-1113.6" y2="-236.7"/>
			</g>
			<circle fill="#CC25CC" stroke="#231F20" stroke-miterlimit="10" cx="-1113.6" cy="-236.7" r="17.5"/>
			<circle fill="#CC2541" stroke="#231F20" stroke-miterlimit="10" cx="-1189.7" cy="-471.1" r="17.5"/>
		</g>
	</g>
	<g>
		<polygon fill="#333333" points="88.1,407.1 7.8,159.5 218,6.5 428.3,159.5 348,407.1 		"/>
		<path fill="#00A1FF" d="M218,18.9l198.5,144.5l-75.8,233.7H95.4L19.5,163.4L218,18.9 M218-5.8l-11.8,8.6L7.8,147.2L-4,155.7
			l4.5,13.8l75.8,233.7l4.5,13.8h14.5h245.4h14.5l4.5-13.8l75.8-233.7l4.5-13.8l-11.7-8.5L229.8,2.7L218-5.8L218-5.8z"/>
	</g>
	<g id="thinking">
		<g>
			<path fill="#333333" d="M241.6,354.3c-8.5,0-16.7-3.6-22.6-9.6c-5.9,6.1-14,9.6-22.6,9.6h-0.8c-17,0-32.5-9-41-23.7
				c-0.5,0-0.9,0-1.4,0c-0.5,0-1,0-1.5,0c-12.9-0.4-24.9-5.9-33.7-15.5c-8.8-9.6-13.3-22-12.6-35c0.2-4.1,1-8.1,2.2-11.9
				c-11.8-9-18.7-22.9-18.7-38c0-14.9,6.8-28.7,18.5-37.8c-1.3-4.4-2-9-2-13.7c0-25.7,20.3-46.7,45.7-47.8
				c6.7-18.5,24.6-31.2,44.5-31.2h0.8c8.5,0,16.7,3.6,22.6,9.6c5.9-6.1,14-9.6,22.6-9.6h0.8c19.8,0,37.8,12.7,44.5,31.2
				c25.4,1.1,45.7,22.1,45.7,47.8c0,4.7-0.7,9.3-2,13.7c11.6,9,18.5,22.9,18.5,37.8c0,15-6.9,29-18.7,38c1.2,3.9,2,7.9,2.2,11.9
				c0.7,12.9-3.8,25.4-12.6,35c-8.8,9.6-20.8,15.1-33.7,15.5c-0.5,0-1,0-1.5,0c-0.5,0-0.9,0-1.4,0c-8.4,14.6-23.9,23.7-41,23.7
				H241.6z M227.7,325.5c1.2,6.6,7.1,11.6,13.9,11.6h0.8c11.3,0,21.5-6.2,26.7-16.3c2.4-4.6,7.1-7.5,12.3-7.5c0.3,0,0.7,0,1,0
				c0.8,0.1,1.5,0.1,2.3,0.1c0.3,0,0.6,0,0.9,0c8.2-0.2,15.9-3.8,21.5-9.9c5.7-6.2,8.5-14.1,8.1-22.4c-0.2-4.3-1.4-8.4-3.3-12.3
				c-5.3-10.3-15.7-16.6-27.3-16.6c-5,0-10,1.2-14.4,3.6l-4.4,2.3l-8.1-15.2l4.4-2.3c6.9-3.7,14.6-5.6,22.5-5.6
				c14.7,0,28.2,6.6,37.3,17.8c6.2-5.7,9.8-13.9,9.8-22.5c0-8.4-3.4-16.3-9.4-22.1c-9,11.5-23,18.4-37.7,18.4c-8,0-16-2-23-5.9
				l-4.4-2.4l8.3-15.1l4.4,2.4c4.5,2.5,9.6,3.7,14.7,3.7c11.8,0,22.4-6.6,27.6-17.3c2-4.2,3-8.6,3-13.3c0-16.9-13.7-30.6-30.6-30.6
				l-0.4,0c-6.1,0-11.4-3.9-13.2-9.8c-3.8-12.6-15.6-21.3-28.8-21.3h-0.8c-6.8,0-12.7,4.9-13.9,11.6c0.1,0.9,0.1,1.7,0.1,2.6v71.6
				c1.5-1.9,2.4-4.4,2.4-7v-5h0.5c2.4-13.3,14.1-23.5,28.1-23.5h5v17.2h-5c-6.3,0-11.4,5.1-11.4,11.4v5H247
				c-1.9,10.3-9.2,18.8-19.2,22v44.7c1.3,5,5.8,8.6,11,8.6h5v0.5c13.3,2.4,23.5,14.1,23.5,28.1v5h-17.2v-5c0-6.3-5.1-11.4-11.4-11.4
				c-3.8,0-7.5-0.8-10.9-2.2v31.7C227.8,323.7,227.8,324.6,227.7,325.5z M156.7,313.3c5.2,0,9.9,2.9,12.3,7.5
				c5.2,10.1,15.4,16.3,26.7,16.3h0.8c6.8,0,12.7-4.9,13.9-11.6c-0.1-0.9-0.1-1.7-0.1-2.6v-69.1c-1.5,1.9-2.3,4.3-2.3,6.9v5h-0.5
				c-2.4,13.3-14.1,23.5-28.1,23.5h-5v-17.2h5c6.3,0,11.4-5.1,11.4-11.4c0.1-12.5,8.1-23.2,19.6-27v-37.8c0-6.3-5.1-11.4-11.4-11.4
				h-5V184c-13.3-2.4-23.5-14.1-23.5-28.1v-5h17.2v5c0,6.3,5.1,11.4,11.4,11.4h5v0.5c2.2,0.4,4.3,1,6.2,1.9v-38.5
				c0-0.9,0-1.7,0.1-2.6c-1.2-6.6-7.1-11.6-13.9-11.6h-0.8c-13.1,0-25,8.8-28.8,21.3c-1.8,5.9-7.1,9.8-13.2,9.8l-0.5,0
				c-16.9,0-30.6,13.7-30.6,30.6c0,4.7,1,9.2,3,13.3c5.2,10.7,15.7,17.3,27.6,17.3c5.1,0,10.2-1.3,14.7-3.7l4.4-2.4l8.3,15.1
				l-4.4,2.4c-7,3.8-14.9,5.9-23,5.9c-14.7,0-28.7-6.9-37.7-18.4c-6,5.7-9.4,13.7-9.4,22.1c0,8.6,3.6,16.8,9.8,22.5
				c9-11.2,22.6-17.8,37.3-17.8c7.8,0,15.6,1.9,22.5,5.6l4.4,2.3l-8.1,15.2l-4.4-2.4c-4.4-2.3-9.4-3.6-14.4-3.6
				c-11.5,0-22,6.4-27.3,16.6c-2,3.8-3.1,8-3.3,12.3c-0.5,8.3,2.4,16.2,8.1,22.4c5.7,6.2,13.3,9.7,21.5,9.9c0.3,0,0.6,0,0.9,0
				c0.8,0,1.5,0,2.3-0.1C156,313.3,156.4,313.3,156.7,313.3z"/>
			<path fill="#00A1FF" d="M242.4,104.7c18.5,0,35.1,12.3,40.5,30c0.2,0.7,0.8,1.1,1.5,1.1l0.4,0c23.6,0,42.8,19.2,42.8,42.8
				c0,5.4-1,10.7-2.9,15.6c12.1,7.9,19.4,21.3,19.4,35.9c0,14.7-7.5,28.3-19.8,36.1c1.9,4.5,3,9.2,3.2,14.1
				c0.6,11.6-3.4,22.7-11.3,31.3c-7.9,8.6-18.6,13.5-30.2,13.9c-0.4,0-0.9,0-1.3,0c-1.1,0-2.1,0-3.2-0.1c0,0-0.1,0-0.1,0
				c-0.6,0-1.2,0.3-1.4,0.8c-7.3,14.1-21.7,22.9-37.6,22.9h-0.8c-9.6,0-18-5.1-22.6-12.8c-4.6,7.6-13,12.8-22.6,12.8h-0.8
				c-15.9,0-30.3-8.8-37.6-22.9c-0.3-0.5-0.8-0.8-1.4-0.8c0,0-0.1,0-0.1,0c-1.1,0.1-2.1,0.1-3.2,0.1c-0.4,0-0.9,0-1.3,0
				c-11.6-0.3-22.3-5.3-30.2-13.9c-7.9-8.6-11.9-19.7-11.3-31.3c0.3-4.9,1.4-9.6,3.2-14.1c-12.3-7.8-19.8-21.4-19.8-36.1
				c0-14.5,7.4-28,19.4-35.9c-1.9-5-2.9-10.2-2.9-15.6c0-23.6,19.2-42.8,42.8-42.8l0.4,0c0,0,0,0,0,0c0.7,0,1.3-0.5,1.5-1.1
				c5.3-17.7,22-30,40.5-30h0.8c9.6,0,18,5.1,22.6,12.8c4.6-7.6,13-12.8,22.6-12.8H242.4 M153.7,143.1l-0.3,0
				c-19.6,0-35.6,16-35.6,35.6c0,5.4,1.2,10.7,3.5,15.5c6,12.4,18.3,20.1,32.1,20.1c6,0,11.9-1.5,17.1-4.4l3.5,6.3
				c-6.3,3.4-13.4,5.3-20.6,5.3c-15,0-29-8-36.7-20.7c-9.6,6.6-15.4,17.6-15.4,29.4c0,12,6,23.1,15.9,29.7
				c7.8-12.4,21.4-19.9,36.2-19.9c7,0,14,1.7,20.1,5l-3.4,6.4c-5.1-2.7-10.9-4.2-16.7-4.2c-13.4,0-25.6,7.4-31.7,19.4
				c-2.3,4.5-3.6,9.3-3.9,14.3c-0.5,9.6,2.8,18.9,9.4,26c6.6,7.2,15.5,11.3,25.1,11.5c0.4,0,0.7,0,1.1,0c0.9,0,1.8,0,2.7-0.1
				c0.2,0,0.5,0,0.7,0c3.3,0,6.3,1.8,7.8,4.8c6,11.7,18,19,31.2,19h0.8c9.6,0,17.6-7.1,18.9-16.4c-0.1-0.9-0.1-1.8-0.1-2.7v-78.1
				c-7.1,1.8-12.3,8.2-12.3,15.9h0c-0.1,13-10.6,23.5-23.6,23.5v-7.2c9,0,16.4-7.3,16.4-16.4h0c0.1-11.6,8.5-21.2,19.6-23.1v-41.7
				c0-9-7.3-16.4-16.4-16.4v0c-13-0.1-23.5-10.6-23.5-23.6h7.2c0,9,7.3,16.4,16.4,16.4v0c6.3,0,12,2.5,16.2,6.6v-47.7
				c0-0.9,0-1.8,0.1-2.7c-1.3-9.2-9.3-16.4-18.9-16.4h-0.8c-15.3,0-29.1,10.2-33.6,24.9C161,140.6,157.7,143.1,153.7,143.1
				C153.7,143.1,153.7,143.1,153.7,143.1 M222.8,211.6c7.1-1.8,12.4-8.2,12.4-15.9h0c0.1-13,10.6-23.5,23.6-23.5v7.2
				c-9,0-16.4,7.3-16.4,16.4h0c-0.1,11.6-8.5,21.3-19.6,23.1v49.2c1.5,7.4,8.1,13,16,13v0c13,0.1,23.5,10.6,23.5,23.6h-7.2
				c0-9-7.3-16.4-16.4-16.4v0c-6.1,0-11.7-2.4-15.9-6.3v40.7c0,0.9,0,1.8-0.1,2.7c1.3,9.2,9.3,16.4,18.9,16.4h0.8
				c13.2,0,25.1-7.3,31.2-19c1.5-2.9,4.5-4.8,7.8-4.8c0.2,0,0.4,0,0.7,0c0.9,0.1,1.8,0.1,2.7,0.1c0.4,0,0.7,0,1.1,0
				c9.6-0.3,18.5-4.4,25.1-11.5c6.6-7.2,9.9-16.4,9.4-26c-0.3-5-1.6-9.8-3.9-14.3c-6.1-11.9-18.3-19.4-31.7-19.4
				c-5.8,0-11.6,1.4-16.7,4.2l-3.4-6.4c6.2-3.3,13.1-5,20.1-5c14.8,0,28.4,7.6,36.2,20c9.9-6.6,15.9-17.6,15.9-29.7
				c0-11.8-5.8-22.7-15.4-29.4c-7.7,12.7-21.7,20.7-36.7,20.7c-7.2,0-14.3-1.8-20.6-5.3l3.5-6.3c5.2,2.9,11.1,4.4,17.1,4.4
				c13.8,0,26.1-7.7,32.1-20.1c2.3-4.8,3.5-10.1,3.5-15.5c0-19.6-16-35.6-35.6-35.6l-0.3,0c0,0-0.1,0-0.1,0c-3.9,0-7.2-2.5-8.4-6.3
				c-4.4-14.7-18.2-24.9-33.6-24.9h-0.8c-9.6,0-17.6,7.1-18.9,16.4c0.1,0.9,0.1,1.8,0.1,2.7V211.6 M242.4,94.7h-0.8
				c-8.3,0-16.2,2.9-22.6,7.9c-6.4-5-14.3-7.9-22.6-7.9h-0.8c-20.8,0-39.7,12.7-47.9,31.4c-26.5,2.8-47.2,25.3-47.2,52.5
				c0,4,0.5,8,1.4,11.9c-11.3,10-17.8,24.3-17.8,39.6c0,15.5,6.6,29.8,18,39.8c-0.8,3.2-1.3,6.5-1.5,9.9c-0.8,14.3,4.2,28,13.9,38.6
				c9.7,10.6,23,16.7,37.2,17.1c0.1,0,0.1,0,0.2,0c9.6,14.7,25.9,23.7,43.8,23.7h0.8c8.3,0,16.2-2.9,22.6-7.9
				c6.4,5,14.3,7.9,22.6,7.9h0.8c17.8,0,34.2-8.9,43.8-23.7c0.1,0,0.1,0,0.2,0c14.3-0.4,27.5-6.5,37.2-17.1
				c9.8-10.6,14.7-24.3,13.9-38.6c-0.2-3.3-0.7-6.6-1.5-9.9c11.4-9.9,18-24.3,18-39.8c0-15.3-6.6-29.6-17.8-39.6
				c0.9-3.9,1.4-7.9,1.4-11.9c0-27.2-20.7-49.7-47.2-52.5C282.1,107.4,263.2,94.7,242.4,94.7L242.4,94.7z M168.6,145.8
				c1.4-1.8,2.4-3.8,3.1-6.1c3.2-10.5,13-17.8,24-17.8h0.8c4.2,0,7.9,2.9,8.9,6.9c0,0.7-0.1,1.5-0.1,2.2v31.1l-6.2,0
				c-3.5,0-6.4-2.9-6.4-6.4v-10h-10h-7.2H168.6L168.6,145.8z M232.8,128.9c1-4,4.7-6.9,8.9-6.9h0.8c11,0,20.8,7.3,24,17.8
				c2.4,8,9.6,13.4,17.9,13.4h0.1h0h0l0.3,0c14.1,0,25.6,11.5,25.6,25.6c0,3.9-0.9,7.7-2.5,11.1c-4.3,8.9-13.2,14.5-23.1,14.5
				c-4.3,0-8.6-1.1-12.3-3.1l-8.8-4.8l-4.8,8.8l-3.5,6.3l-4.8,8.8l8.8,4.8c5,2.8,10.5,4.7,16.1,5.7c-5.4,1-10.7,2.8-15.6,5.4
				l-8.8,4.7l4.7,8.8l3.4,6.4l4.7,8.8l8.8-4.7c3.7-2,7.8-3,12-3c9.6,0,18.4,5.3,22.8,13.9c1.6,3.2,2.6,6.6,2.8,10.3
				c0.4,6.9-2,13.6-6.8,18.7c-4.7,5.2-11.1,8.1-18,8.3c-0.3,0-0.5,0-0.8,0c-0.6,0-1.3,0-1.9-0.1c-0.4,0-0.9-0.1-1.4-0.1
				c-3.2,0-6.3,0.8-9.1,2.3v-5.8c0-15-9.9-27.7-23.5-32v-1.6l-10,0c-2.7,0-5.2-1.8-6-4.3v-40.6c8.7-3.9,15.2-11.4,18.1-20.4h1.5
				l0-10c0-3.5,2.9-6.4,6.4-6.4h10v-10v-7.2v-10h-10c-10.5,0-19.8,4.8-26,12.4v-43.5C232.8,130.4,232.8,129.6,232.8,128.9
				L232.8,128.9z M153.7,153.1L153.7,153.1h0.1c4.4,0,8.4-1.5,11.6-4v6.8c0,15,9.9,27.7,23.5,32v1.6l10,0c3.5,0,6.4,2.9,6.4,6.4
				v34.4c-8.6,4-15.2,11.4-18,20.4h-1.5l0,10c0,3.5-2.9,6.4-6.4,6.4h-10v10v7.2v10h10c10.4,0,19.8-4.8,25.9-12.3v41
				c0,0.7,0,1.5,0.1,2.2c-1,4-4.7,6.9-8.9,6.9h-0.8c-9.4,0-18-5.2-22.3-13.6c-3.2-6.3-9.6-10.2-16.7-10.2c-0.5,0-1,0-1.4,0.1
				c-0.6,0-1.3,0.1-1.9,0.1c-0.3,0-0.5,0-0.8,0c-6.9-0.2-13.3-3.2-18-8.3c-4.8-5.2-7.2-11.8-6.8-18.7c0.2-3.6,1.1-7.1,2.8-10.3
				c4.4-8.6,13.2-13.9,22.8-13.9c4.2,0,8.4,1,12,3l8.8,4.7l4.7-8.8l3.4-6.4l4.7-8.8l-8.8-4.7c-4.9-2.6-10.1-4.4-15.5-5.4
				c5.6-1,11.1-2.9,16.1-5.7l8.8-4.8l-4.8-8.8l-3.5-6.3l-4.8-8.8l-8.8,4.8c-3.7,2-8,3.1-12.3,3.1c-9.9,0-18.8-5.5-23.1-14.5
				c-1.7-3.5-2.5-7.2-2.5-11.1c0-14.1,11.5-25.6,25.6-25.6L153.7,153.1L153.7,153.1L153.7,153.1z M294,230.7
				c10.7-1.9,20.7-7.2,28.4-15c2.9,4.2,4.5,9.2,4.5,14.5c0,5.5-1.7,10.7-4.9,15C314.3,237.7,304.6,232.6,294,230.7L294,230.7z
				 M116.1,245.2c-3.1-4.3-4.9-9.5-4.9-15c0-5.2,1.6-10.3,4.5-14.5c7.7,7.7,17.6,13,28.4,15C133.4,232.6,123.7,237.7,116.1,245.2
				L116.1,245.2z M232.8,325.1c0-0.7,0.1-1.5,0.1-2.2v-24.5l5.9,0c3.5,0,6.4,2.9,6.4,6.4v10h10h7.2h4.8c-0.9,1.1-1.8,2.3-2.4,3.6
				c-4.3,8.4-12.9,13.6-22.3,13.6h-0.8C237.4,332,233.8,329.1,232.8,325.1L232.8,325.1z"/>
		</g>
	</g>
</g>
</svg>
